# xmcd
#
# Track frame offsets:
#	150
#	10730
#	24672
#	36611
#	53913
#	65201
#	79602
#	87280
#	104199
#	114915
#	129197
#	142826
#	152850
#	162389
#	173150
#	187197
#	206265
#	215308
#	225322
#	239540
#	255234
#	271443
#
# Disc length: 3802 seconds
# Revision: 0
# Processed by: cddbd v1.5.2PL0 Copyright (c) Steve Scherf et al.
# Submitted via: dBpowerAMP V12.0
#
DISCID=2f0ed816
DTITLE=Wayne Horsburgh - 22 Yodel Greats
DYEAR=2017
DGENRE=
TTITLE0=The Night Guard
TTITLE1=Can You Hear Those Pioneers
TTITLE2=Give Me A Pinto Pal
TTITLE3=Home On The Range
TTITLE4=Its Time To Sing Those Yodelling Songs
TTITLE5=Oh Leo Lady
TTITLE6=Man From The Never Never
TTITLE7=Silver Wings
TTITLE8=Arizona Yodeller
TTITLE9=Christmas Cowboy Style
TTITLE10=Singing Cowboy
TTITLE11=Tennessee Yodel Polka
TTITLE12=Swiss Maid
TTITLE13=Music In My Ponys Feet
TTITLE14=Sioux City Sue
TTITLE15=High Mountain Yodel
TTITLE16=Chimebells
TTITLE17=The Happy Bushman
TTITLE18=Song Of The Old Waterwheel
TTITLE19=Rockin Over River
TTITLE20=Shepherds Farewell
TTITLE21=Give Em Another Encore
EXTD=
EXTT0=
EXTT1=
EXTT2=
EXTT3=
EXTT4=
EXTT5=
EXTT6=
EXTT7=
EXTT8=
EXTT9=
EXTT10=
EXTT11=
EXTT12=
EXTT13=
EXTT14=
EXTT15=
EXTT16=
EXTT17=
EXTT18=
EXTT19=
EXTT20=
EXTT21=
PLAYORDER=
